<?xml version="1.0" encoding="UTF-8"?> <svg xmlns="http://www.w3.org/2000/svg" xmlns:xlink="http://www.w3.org/1999/xlink" xmlns:v="https://vecta.io/nano" width="525" height="320"><defs><path id="A" d="M32 22.985h467.691v276.542H32z"></path></defs><clipPath id="B"><use xlink:href="#A"></use></clipPath><path clip-path="url(#B)" d="M491.92 236.035l-.452-2.107h-22.145v-20.52h21.37v-2.109h-21.37v-20.008h22.209v-2.109h-24.533v46.854h24.921zm-36.283-44.744v-2.109H427.36v2.109h12.977v44.744h2.324v-44.744h12.976zm-39.381 30.234v-32.344h-2.324v32.344c0 8.311-4.002 12.977-13.363 12.977-9.685 0-13.106-4.539-13.106-12.977v-32.344h-2.259v32.344c0 10.867 5.164 15.215 15.365 15.215 9.425 0 15.687-4.156 15.687-15.215m-42.158-30.234v-2.109H345.82v2.109h12.978v44.744h2.324v-44.744h12.976zm-39.639-2.109h-2.324v46.854h2.324v-46.854zm-13.688 2.109v-2.109h-28.276v2.109h12.978v44.744h2.323v-44.744h12.975zm-34.41 33.24c0-5.754-2.775-9.078-9.168-11.762l-7.488-3.133c-5.616-2.365-7.553-4.602-7.553-8.82 0-6.84 4.453-10.037 11.492-10.037 2.775 0 5.229.32 9.619 1.215l.451-2.365c-4.132-.766-7.359-1.086-10.07-1.086-8.846 0-14.011 4.922-14.011 12.273 0 4.729 2.001 7.99 9.168 11.057l7.618 3.262c5.423 2.301 7.489 4.729 7.489 9.396 0 6.199-3.552 9.906-10.782 9.906-3.357 0-5.488-.318-12.137-2.109l-.711 2.365c6.134 1.598 9.297 1.982 12.783 1.982 7.621.001 13.3-3.771 13.3-12.144m-37.056 11.504v-46.854h-2.195v40.398c0 1.344.064 3.004.193 4.41h-.258c-.581-1.277-1.291-2.812-2.195-4.41l-23.5-40.398h-3.099v46.854h2.26v-40.014c0-1.789-.065-3.195-.259-4.73h.259c.516 1.406 1.226 3.004 2.259 4.73l23.306 40.014h3.229zm-46.29-46.853h-2.324v46.854h2.324v-46.854zm296.676-63.921h-6.716l-8.345 17.898c-.652 1.406-1.239 3.26-1.369 4.282h-.393c-.064-1.022-.652-2.876-1.304-4.282l-8.541-17.898h-6.846l13.497 28.189v18.665h6.519v-18.601l13.498-28.253zm-36.967 41.102c-.326.062-.782.127-1.304.127-1.564 0-2.021-.383-3-2.174l-6.846-12.784c5.738-1.917 8.998-6.137 8.998-12.849 0-9.523-5.867-13.423-14.931-13.423h-14.996v46.854h6.39v-19.048h8.41l7.434 14.382c1.955 3.771 3.65 4.922 7.106 4.922.782 0 1.956-.127 2.738-.256v-5.751zm-8.737-27.422c0 6.008-3.26 9.14-9.128 9.14h-7.824v-17.706h8.28c6.195 0 8.672 3.196 8.672 8.566m-57.897 14.445l5.803-18.665c.457-1.47.848-3.452.848-4.411h.522c0 .959.325 2.941.782 4.411l5.803 18.665H396.09zm26.014 18.729l-14.67-46.854h-8.671l-14.866 46.854h6.586l4.237-13.615h16.431l4.173 13.615h6.78zm-46.747 0v-46.854h-5.934v32.152a63.8 63.8 0 0 0 .197 4.922h-.393c-.65-1.854-1.369-3.453-2.216-4.922l-18.257-32.152h-7.236v46.854h6.062v-32.919c0-1.789-.129-3.451-.261-5.113h.392c.521 1.598 1.238 3.388 2.217 5.113l18.648 32.919h6.781zm-52.092-23.395c0 15.405-4.825 18.665-12.127 18.665-7.368 0-12.062-3.516-12.062-18.665 0-14.958 4.303-18.729 12.062-18.729 7.628.001 12.127 3.771 12.127 18.729m6.845 0c0-17.451-7.303-24.099-18.973-24.099-11.476 0-18.908 6.904-18.908 24.227s7.172 23.906 18.908 23.906c11.931 0 18.973-7.094 18.973-24.034m-46.747 23.395l-3.13-46.854h-7.954l-11.345 34.134c-.651 2.046-1.174 4.73-1.304 6.136h-.392c-.131-1.406-.782-4.09-1.5-6.136l-11.475-34.134h-7.889l-3.195 46.854h5.933l2.022-32.408c.065-1.342.065-4.155.065-5.433h.455c.196 1.661.848 4.026 1.305 5.433l10.822 32.408h6.781l10.758-32.408c.588-1.79 1.108-3.963 1.305-5.433h.391c0 2.173.13 4.091.195 5.433l1.891 32.408h6.261zm-56.071 0l-.652-5.561h-19.495v-41.293h-6.585v46.854h26.732zm-40.554-15.916v-30.938h-6.324v30.938c0 7.926-3.065 10.995-10.628 10.995-7.889 0-10.367-3.068-10.367-10.995v-30.938h-6.52v30.938c0 12.592 6.325 16.555 16.822 16.555 10.758 0 17.017-4.666 17.017-16.555m-51.181-16.684c0 7.735-4.563 9.333-9.845 9.333h-6.976v-18.281h7.628c4.889 0 9.193 1.598 9.193 8.948m6.715.065c0-10.419-5.933-14.318-15.713-14.318h-14.344v46.854h6.52v-17.961h7.042c9.127-.001 16.495-3.836 16.495-14.575m271.455-54.781c0 15.404-4.824 18.665-12.127 18.665-7.367 0-12.062-3.517-12.062-18.665 0-14.957 4.304-18.729 12.062-18.729 7.629 0 12.127 3.772 12.127 18.729m6.845 0c0-17.45-7.302-24.099-18.973-24.099-11.475 0-18.908 6.903-18.908 24.227s7.172 23.905 18.908 23.905c11.932.001 18.973-7.094 18.973-24.033M371.805 61.34h-6.585v46.854h6.585V61.34zm-24.32 22.692c0 14.895-4.825 18.857-13.888 18.857h-7.824V66.646h8.02c8.086 0 13.692 2.94 13.692 17.386m6.911-.128c0-17.514-8.867-22.563-20.863-22.563h-14.279v46.854h14.41c13.039-.001 20.732-7.416 20.732-24.291m-44.857 18.537c-.326.064-.781.128-1.304.128-1.563 0-2.021-.383-2.999-2.173l-6.846-12.784c5.738-1.918 8.998-6.137 8.998-12.848 0-9.525-5.868-13.424-14.932-13.424H277.46v46.854h6.391V89.146h8.411l7.432 14.382c1.956 3.771 3.651 4.922 7.107 4.922.782 0 1.956-.128 2.737-.256v-5.753zm-8.735-27.422c0 6.009-3.261 9.141-9.128 9.141h-7.824V66.454h8.28c6.194 0 8.672 3.196 8.672 8.565m-57.898 14.446l5.803-18.665c.457-1.471.848-3.451.848-4.41h.521c0 .959.326 2.939.782 4.41l5.804 18.665h-13.758zm26.014 18.729L254.252 61.34h-8.672l-14.866 46.854h6.585l4.237-13.615h16.431l4.173 13.615h6.78zm-43.682-2.237l-1.434-5.753c-5.608 2.365-8.541 3.004-10.889 3.004-7.693 0-12.714-2.619-12.714-18.536 0-15.277 4.76-18.346 12.258-18.346 2.673 0 5.803.703 10.301 2.365l1.5-5.817c-5.607-1.661-8.672-2.173-12.127-2.173-12.062 0-18.778 6.839-18.778 23.971 0 16.875 5.803 24.161 19.365 24.161 3.129 0 6.585-.511 12.518-2.876"></path><defs><path id="C" d="M32 243.289v36.914l1.541 5.09v-48.715z"></path></defs><clipPath id="D"><use xlink:href="#C"></use></clipPath><linearGradient id="E" gradientUnits="userSpaceOnUse" x1="-373.868" y1="563.188" x2="-372.868" y2="563.188" gradientTransform="matrix(118.0062 163.0192 163.0192 -118.0062 -47742.9492 127552)"><stop offset="0" stop-color="#007399"></stop><stop offset=".03" stop-color="#007399"></stop><stop offset=".105" stop-color="#047499"></stop><stop offset=".172" stop-color="#0f7699"></stop><stop offset=".236" stop-color="#217999"></stop><stop offset=".299" stop-color="#3b7d99"></stop><stop offset=".36" stop-color="#5c8399"></stop><stop offset=".421" stop-color="#858a99"></stop><stop offset=".48" stop-color="#b59399"></stop><stop offset=".493" stop-color="#c19599"></stop><stop offset=".505" stop-color="#c48a98"></stop><stop offset=".566" stop-color="#d25993"></stop><stop offset=".623" stop-color="#dd3390"></stop><stop offset=".675" stop-color="#e5178d"></stop><stop offset=".721" stop-color="#e9068c"></stop><stop offset=".756" stop-color="#eb008b"></stop><stop offset=".761" stop-color="#e3048b"></stop><stop offset=".812" stop-color="#9f2590"></stop><stop offset=".861" stop-color="#664193"></stop><stop offset=".905" stop-color="#3a5796"></stop><stop offset=".944" stop-color="#1a6697"></stop><stop offset=".977" stop-color="#077099"></stop><stop offset="1" stop-color="#007399"></stop></linearGradient><path clip-path="url(#D)" fill="url(#E)" d="M33.011 235.846l23.669 32.697-24.15 17.482-23.669-32.697z"></path><defs><path id="F" d="M92.892 290.027l1.542-.637V165.3l-1.305-2.236-.237-.473v127.436zm0-218.327v24.28l1.542-1.981V69.645L92.892 71.7z"></path></defs><clipPath id="G"><use xlink:href="#F"></use></clipPath><linearGradient id="H" gradientUnits="userSpaceOnUse" x1="-373.868" y1="563.669" x2="-372.868" y2="563.669" gradientTransform="matrix(118.0062 163.0192 163.0192 -118.0062 -47742.9492 127552)"><stop offset="0" stop-color="#007399"></stop><stop offset=".03" stop-color="#007399"></stop><stop offset=".105" stop-color="#047499"></stop><stop offset=".172" stop-color="#0f7699"></stop><stop offset=".236" stop-color="#217999"></stop><stop offset=".299" stop-color="#3b7d99"></stop><stop offset=".36" stop-color="#5c8399"></stop><stop offset=".421" stop-color="#858a99"></stop><stop offset=".48" stop-color="#b59399"></stop><stop offset=".493" stop-color="#c19599"></stop><stop offset=".505" stop-color="#c48a98"></stop><stop offset=".566" stop-color="#d25993"></stop><stop offset=".623" stop-color="#dd3390"></stop><stop offset=".675" stop-color="#e5178d"></stop><stop offset=".721" stop-color="#e9068c"></stop><stop offset=".756" stop-color="#eb008b"></stop><stop offset=".761" stop-color="#e3048b"></stop><stop offset=".812" stop-color="#9f2590"></stop><stop offset=".861" stop-color="#664193"></stop><stop offset=".905" stop-color="#3a5796"></stop><stop offset=".944" stop-color="#1a6697"></stop><stop offset=".977" stop-color="#077099"></stop><stop offset="1" stop-color="#007399"></stop></linearGradient><path clip-path="url(#G)" fill="url(#H)" d="M93.904 68.913l105.209 145.341L93.422 290.76-11.787 145.419z"></path><defs><path id="I" d="M62.543 120.454v179.073l1.541-.31V117.196z"></path></defs><clipPath id="J"><use xlink:href="#I"></use></clipPath><linearGradient id="K" gradientUnits="userSpaceOnUse" x1="-373.868" y1="563.463" x2="-372.868" y2="563.463" gradientTransform="matrix(118.0062 163.0192 163.0192 -118.0062 -47742.9492 127552)"><stop offset="0" stop-color="#007399"></stop><stop offset=".03" stop-color="#007399"></stop><stop offset=".105" stop-color="#047499"></stop><stop offset=".172" stop-color="#0f7699"></stop><stop offset=".236" stop-color="#217999"></stop><stop offset=".299" stop-color="#3b7d99"></stop><stop offset=".36" stop-color="#5c8399"></stop><stop offset=".421" stop-color="#858a99"></stop><stop offset=".48" stop-color="#b59399"></stop><stop offset=".493" stop-color="#c19599"></stop><stop offset=".505" stop-color="#c48a98"></stop><stop offset=".566" stop-color="#d25993"></stop><stop offset=".623" stop-color="#dd3390"></stop><stop offset=".675" stop-color="#e5178d"></stop><stop offset=".721" stop-color="#e9068c"></stop><stop offset=".756" stop-color="#eb008b"></stop><stop offset=".761" stop-color="#e3048b"></stop><stop offset=".812" stop-color="#9f2590"></stop><stop offset=".861" stop-color="#664193"></stop><stop offset=".905" stop-color="#3a5796"></stop><stop offset=".944" stop-color="#1a6697"></stop><stop offset=".977" stop-color="#077099"></stop><stop offset="1" stop-color="#007399"></stop></linearGradient><path clip-path="url(#J)" fill="url(#K)" d="M63.554 116.464l87.134 120.372-87.615 63.424-87.135-120.373z"></path><defs><path id="L" d="M123.437 279.254l1.541-.482v-75.996l-1.541-1.588v78.066zm0-244.439v40.446l1.541-.221V33.418l-1.541 1.397z"></path></defs><clipPath id="M"><use xlink:href="#L"></use></clipPath><linearGradient id="N" gradientUnits="userSpaceOnUse" x1="-373.868" y1="563.86" x2="-372.868" y2="563.86" gradientTransform="matrix(118.0062 163.0192 163.0192 -118.0062 -47742.9492 127552)"><stop offset="0" stop-color="#007399"></stop><stop offset=".03" stop-color="#007399"></stop><stop offset=".105" stop-color="#047499"></stop><stop offset=".172" stop-color="#0f7699"></stop><stop offset=".236" stop-color="#217999"></stop><stop offset=".299" stop-color="#3b7d99"></stop><stop offset=".36" stop-color="#5c8399"></stop><stop offset=".421" stop-color="#858a99"></stop><stop offset=".48" stop-color="#b59399"></stop><stop offset=".493" stop-color="#c19599"></stop><stop offset=".505" stop-color="#c48a98"></stop><stop offset=".566" stop-color="#d25993"></stop><stop offset=".623" stop-color="#dd3390"></stop><stop offset=".675" stop-color="#e5178d"></stop><stop offset=".721" stop-color="#e9068c"></stop><stop offset=".756" stop-color="#eb008b"></stop><stop offset=".761" stop-color="#e3048b"></stop><stop offset=".812" stop-color="#9f2590"></stop><stop offset=".861" stop-color="#664193"></stop><stop offset=".905" stop-color="#3a5796"></stop><stop offset=".944" stop-color="#1a6697"></stop><stop offset=".977" stop-color="#077099"></stop><stop offset="1" stop-color="#007399"></stop></linearGradient><path clip-path="url(#M)" fill="url(#N)" d="M124.448 32.687l117.298 162.042-117.779 85.257L6.669 117.945z"></path><defs><path id="O" d="M48.764 297.471l-1.541-.543V166.842l1.541-4.733z"></path></defs><clipPath id="P"><use xlink:href="#O"></use></clipPath><linearGradient id="Q" gradientUnits="userSpaceOnUse" x1="-373.868" y1="563.34" x2="-372.868" y2="563.34" gradientTransform="matrix(118.0062 163.0192 163.0192 -118.0062 -47742.9492 127552)"><stop offset="0" stop-color="#007399"></stop><stop offset=".03" stop-color="#007399"></stop><stop offset=".105" stop-color="#047499"></stop><stop offset=".172" stop-color="#0f7699"></stop><stop offset=".236" stop-color="#217999"></stop><stop offset=".299" stop-color="#3b7d99"></stop><stop offset=".36" stop-color="#5c8399"></stop><stop offset=".421" stop-color="#858a99"></stop><stop offset=".48" stop-color="#b59399"></stop><stop offset=".493" stop-color="#c19599"></stop><stop offset=".505" stop-color="#c48a98"></stop><stop offset=".566" stop-color="#d25993"></stop><stop offset=".623" stop-color="#dd3390"></stop><stop offset=".675" stop-color="#e5178d"></stop><stop offset=".721" stop-color="#e9068c"></stop><stop offset=".756" stop-color="#eb008b"></stop><stop offset=".761" stop-color="#e3048b"></stop><stop offset=".812" stop-color="#9f2590"></stop><stop offset=".861" stop-color="#664193"></stop><stop offset=".905" stop-color="#3a5796"></stop><stop offset=".944" stop-color="#1a6697"></stop><stop offset=".977" stop-color="#077099"></stop><stop offset="1" stop-color="#007399"></stop></linearGradient><path clip-path="url(#P)" fill="url(#Q)" d="M48.234 161.377l64.825 89.553-65.306 47.273-64.825-89.553z"></path><defs><path id="R" d="M108.118 284.953l1.54-.631v-98.275l-1.54-1.85v100.756zm0-232.762v29.396l1.54-1.006v-30.33l-1.54 1.94z"></path></defs><clipPath id="S"><use xlink:href="#R"></use></clipPath><linearGradient id="T" gradientUnits="userSpaceOnUse" x1="-373.868" y1="563.766" x2="-372.868" y2="563.766" gradientTransform="matrix(118.0062 163.0192 163.0192 -118.0062 -47742.9492 127552)"><stop offset="0" stop-color="#007399"></stop><stop offset=".03" stop-color="#007399"></stop><stop offset=".105" stop-color="#047499"></stop><stop offset=".172" stop-color="#0f7699"></stop><stop offset=".236" stop-color="#217999"></stop><stop offset=".299" stop-color="#3b7d99"></stop><stop offset=".36" stop-color="#5c8399"></stop><stop offset=".421" stop-color="#858a99"></stop><stop offset=".48" stop-color="#b59399"></stop><stop offset=".493" stop-color="#c19599"></stop><stop offset=".505" stop-color="#c48a98"></stop><stop offset=".566" stop-color="#d25993"></stop><stop offset=".623" stop-color="#dd3390"></stop><stop offset=".675" stop-color="#e5178d"></stop><stop offset=".721" stop-color="#e9068c"></stop><stop offset=".756" stop-color="#eb008b"></stop><stop offset=".761" stop-color="#e3048b"></stop><stop offset=".812" stop-color="#9f2590"></stop><stop offset=".861" stop-color="#664193"></stop><stop offset=".905" stop-color="#3a5796"></stop><stop offset=".944" stop-color="#1a6697"></stop><stop offset=".977" stop-color="#077099"></stop><stop offset="1" stop-color="#007399"></stop></linearGradient><path clip-path="url(#S)" fill="url(#T)" d="M109.128 49.52l112.01 154.736-112.491 81.428L-3.362 130.95z"></path><defs><path id="U" d="M79.309 294.775l-1.541.621V93.226l1.541-2.288z"></path></defs><clipPath id="V"><use xlink:href="#U"></use></clipPath><linearGradient id="W" gradientUnits="userSpaceOnUse" x1="-373.868" y1="563.568" x2="-372.868" y2="563.568" gradientTransform="matrix(118.0062 163.0192 163.0192 -118.0062 -47742.9492 127552)"><stop offset="0" stop-color="#007399"></stop><stop offset=".03" stop-color="#007399"></stop><stop offset=".105" stop-color="#047499"></stop><stop offset=".172" stop-color="#0f7699"></stop><stop offset=".236" stop-color="#217999"></stop><stop offset=".299" stop-color="#3b7d99"></stop><stop offset=".36" stop-color="#5c8399"></stop><stop offset=".421" stop-color="#858a99"></stop><stop offset=".48" stop-color="#b59399"></stop><stop offset=".493" stop-color="#c19599"></stop><stop offset=".505" stop-color="#c48a98"></stop><stop offset=".566" stop-color="#d25993"></stop><stop offset=".623" stop-color="#dd3390"></stop><stop offset=".675" stop-color="#e5178d"></stop><stop offset=".721" stop-color="#e9068c"></stop><stop offset=".756" stop-color="#eb008b"></stop><stop offset=".761" stop-color="#e3048b"></stop><stop offset=".812" stop-color="#9f2590"></stop><stop offset=".861" stop-color="#664193"></stop><stop offset=".905" stop-color="#3a5796"></stop><stop offset=".944" stop-color="#1a6697"></stop><stop offset=".977" stop-color="#077099"></stop><stop offset="1" stop-color="#007399"></stop></linearGradient><path clip-path="url(#V)" fill="url(#W)" d="M78.779 90.206l97.645 134.89-98.126 71.031-97.645-134.891z"></path><defs><path id="X" d="M138.66 274.287l1.542-.926v-55.396l-1.542-1.484v57.806zm0-248.392v48.796l1.542.142V25.274l-1.542.621z"></path></defs><clipPath id="Y"><use xlink:href="#X"></use></clipPath><linearGradient id="Z" gradientUnits="userSpaceOnUse" x1="-373.868" y1="563.94" x2="-372.868" y2="563.94" gradientTransform="matrix(118.0062 163.0192 163.0192 -118.0062 -47742.9492 127552)"><stop offset="0" stop-color="#007399"></stop><stop offset=".03" stop-color="#007399"></stop><stop offset=".105" stop-color="#047499"></stop><stop offset=".172" stop-color="#0f7699"></stop><stop offset=".236" stop-color="#217999"></stop><stop offset=".299" stop-color="#3b7d99"></stop><stop offset=".36" stop-color="#5c8399"></stop><stop offset=".421" stop-color="#858a99"></stop><stop offset=".48" stop-color="#b59399"></stop><stop offset=".493" stop-color="#c19599"></stop><stop offset=".505" stop-color="#c48a98"></stop><stop offset=".566" stop-color="#d25993"></stop><stop offset=".623" stop-color="#dd3390"></stop><stop offset=".675" stop-color="#e5178d"></stop><stop offset=".721" stop-color="#e9068c"></stop><stop offset=".756" stop-color="#eb008b"></stop><stop offset=".761" stop-color="#e3048b"></stop><stop offset=".812" stop-color="#9f2590"></stop><stop offset=".861" stop-color="#664193"></stop><stop offset=".905" stop-color="#3a5796"></stop><stop offset=".944" stop-color="#1a6697"></stop><stop offset=".977" stop-color="#077099"></stop><stop offset="1" stop-color="#007399"></stop></linearGradient><path clip-path="url(#Y)" fill="url(#Z)" d="M139.672 24.542l118.807 164.126L139.19 275.02 20.382 110.893z"></path><defs><path id="a" d="M41.299 294.291l-1.541-.932v-93.615l1.541-7.144z"></path></defs><clipPath id="b"><use xlink:href="#a"></use></clipPath><linearGradient id="c" gradientUnits="userSpaceOnUse" x1="-373.867" y1="563.27" x2="-372.868" y2="563.27" gradientTransform="matrix(118.0062 163.0192 163.0192 -118.0062 -47742.9492 127552)"><stop offset="0" stop-color="#007399"></stop><stop offset=".03" stop-color="#007399"></stop><stop offset=".105" stop-color="#047499"></stop><stop offset=".172" stop-color="#0f7699"></stop><stop offset=".236" stop-color="#217999"></stop><stop offset=".299" stop-color="#3b7d99"></stop><stop offset=".36" stop-color="#5c8399"></stop><stop offset=".421" stop-color="#858a99"></stop><stop offset=".48" stop-color="#b59399"></stop><stop offset=".493" stop-color="#c19599"></stop><stop offset=".505" stop-color="#c48a98"></stop><stop offset=".566" stop-color="#d25993"></stop><stop offset=".623" stop-color="#dd3390"></stop><stop offset=".675" stop-color="#e5178d"></stop><stop offset=".721" stop-color="#e9068c"></stop><stop offset=".756" stop-color="#eb008b"></stop><stop offset=".761" stop-color="#e3048b"></stop><stop offset=".812" stop-color="#9f2590"></stop><stop offset=".861" stop-color="#664193"></stop><stop offset=".905" stop-color="#3a5796"></stop><stop offset=".944" stop-color="#1a6697"></stop><stop offset=".977" stop-color="#077099"></stop><stop offset="1" stop-color="#007399"></stop></linearGradient><path clip-path="url(#b)" fill="url(#c)" d="M40.769 191.867l48.832 67.459-49.313 35.697-48.832-67.459z"></path><defs><path id="d" d="M100.65 287.553l1.541-.697V176.764l-1.541-2.045v112.834zm0-225.604v25.543l1.541-1.39V59.56l-1.541 2.389z"></path></defs><clipPath id="e"><use xlink:href="#d"></use></clipPath><linearGradient id="f" gradientUnits="userSpaceOnUse" x1="-373.868" y1="563.719" x2="-372.868" y2="563.719" gradientTransform="matrix(118.0062 163.0192 163.0192 -118.0062 -47742.9492 127552)"><stop offset="0" stop-color="#007399"></stop><stop offset=".03" stop-color="#007399"></stop><stop offset=".105" stop-color="#047499"></stop><stop offset=".172" stop-color="#0f7699"></stop><stop offset=".236" stop-color="#217999"></stop><stop offset=".299" stop-color="#3b7d99"></stop><stop offset=".36" stop-color="#5c8399"></stop><stop offset=".421" stop-color="#858a99"></stop><stop offset=".48" stop-color="#b59399"></stop><stop offset=".493" stop-color="#c19599"></stop><stop offset=".505" stop-color="#c48a98"></stop><stop offset=".566" stop-color="#d25993"></stop><stop offset=".623" stop-color="#dd3390"></stop><stop offset=".675" stop-color="#e5178d"></stop><stop offset=".721" stop-color="#e9068c"></stop><stop offset=".756" stop-color="#eb008b"></stop><stop offset=".761" stop-color="#e3048b"></stop><stop offset=".812" stop-color="#9f2590"></stop><stop offset=".861" stop-color="#664193"></stop><stop offset=".905" stop-color="#3a5796"></stop><stop offset=".944" stop-color="#1a6697"></stop><stop offset=".977" stop-color="#077099"></stop><stop offset="1" stop-color="#007399"></stop></linearGradient><path clip-path="url(#e)" fill="url(#f)" d="M101.661 58.828L210.484 209.16 101.18 288.283-7.643 137.951z"></path><defs><path id="g" d="M71.842 297.16l-1.541.428v-191.95l1.541-2.793z"></path></defs><clipPath id="h"><use xlink:href="#g"></use></clipPath><linearGradient id="i" gradientUnits="userSpaceOnUse" x1="-373.868" y1="563.518" x2="-372.868" y2="563.518" gradientTransform="matrix(118.0062 163.0192 163.0192 -118.0062 -47742.9492 127552)"><stop offset="0" stop-color="#007399"></stop><stop offset=".03" stop-color="#007399"></stop><stop offset=".105" stop-color="#047499"></stop><stop offset=".172" stop-color="#0f7699"></stop><stop offset=".236" stop-color="#217999"></stop><stop offset=".299" stop-color="#3b7d99"></stop><stop offset=".36" stop-color="#5c8399"></stop><stop offset=".421" stop-color="#858a99"></stop><stop offset=".48" stop-color="#b59399"></stop><stop offset=".493" stop-color="#c19599"></stop><stop offset=".505" stop-color="#c48a98"></stop><stop offset=".566" stop-color="#d25993"></stop><stop offset=".623" stop-color="#dd3390"></stop><stop offset=".675" stop-color="#e5178d"></stop><stop offset=".721" stop-color="#e9068c"></stop><stop offset=".756" stop-color="#eb008b"></stop><stop offset=".761" stop-color="#e3048b"></stop><stop offset=".812" stop-color="#9f2590"></stop><stop offset=".861" stop-color="#664193"></stop><stop offset=".905" stop-color="#3a5796"></stop><stop offset=".944" stop-color="#1a6697"></stop><stop offset=".977" stop-color="#077099"></stop><stop offset="1" stop-color="#007399"></stop></linearGradient><path clip-path="url(#h)" fill="url(#i)" d="M71.312 102.113l93.03 128.516-93.511 67.691-93.03-128.515z"></path><defs><path id="j" d="M131.193 276.941l1.541-.539v-65.764l-1.541-1.527v67.83zm0-247.561v45.115l1.541-.067V28.609l-1.541.771z"></path></defs><clipPath id="k"><use xlink:href="#j"></use></clipPath><linearGradient id="l" gradientUnits="userSpaceOnUse" x1="-373.868" y1="563.902" x2="-372.868" y2="563.902" gradientTransform="matrix(118.0062 163.0192 163.0192 -118.0062 -47742.9492 127552)"><stop offset="0" stop-color="#007399"></stop><stop offset=".03" stop-color="#007399"></stop><stop offset=".105" stop-color="#047499"></stop><stop offset=".172" stop-color="#0f7699"></stop><stop offset=".236" stop-color="#217999"></stop><stop offset=".299" stop-color="#3b7d99"></stop><stop offset=".36" stop-color="#5c8399"></stop><stop offset=".421" stop-color="#858a99"></stop><stop offset=".48" stop-color="#b59399"></stop><stop offset=".493" stop-color="#c19599"></stop><stop offset=".505" stop-color="#c48a98"></stop><stop offset=".566" stop-color="#d25993"></stop><stop offset=".623" stop-color="#dd3390"></stop><stop offset=".675" stop-color="#e5178d"></stop><stop offset=".721" stop-color="#e9068c"></stop><stop offset=".756" stop-color="#eb008b"></stop><stop offset=".761" stop-color="#e3048b"></stop><stop offset=".812" stop-color="#9f2590"></stop><stop offset=".861" stop-color="#664193"></stop><stop offset=".905" stop-color="#3a5796"></stop><stop offset=".944" stop-color="#1a6697"></stop><stop offset=".977" stop-color="#077099"></stop><stop offset="1" stop-color="#007399"></stop></linearGradient><path clip-path="url(#k)" fill="url(#l)" d="M132.204 27.876l118.484 163.681-118.965 86.115L13.239 113.994z"></path><defs><path id="m" d="M54.981 142.725v156.492l1.54.271V137.675z"></path></defs><clipPath id="n"><use xlink:href="#m"></use></clipPath><linearGradient id="o" gradientUnits="userSpaceOnUse" x1="-373.868" y1="563.402" x2="-372.868" y2="563.402" gradientTransform="matrix(118.0062 163.0192 163.0192 -118.0062 -47742.9492 127552)"><stop offset="0" stop-color="#007399"></stop><stop offset=".03" stop-color="#007399"></stop><stop offset=".105" stop-color="#047499"></stop><stop offset=".172" stop-color="#0f7699"></stop><stop offset=".236" stop-color="#217999"></stop><stop offset=".299" stop-color="#3b7d99"></stop><stop offset=".36" stop-color="#5c8399"></stop><stop offset=".421" stop-color="#858a99"></stop><stop offset=".48" stop-color="#b59399"></stop><stop offset=".493" stop-color="#c19599"></stop><stop offset=".505" stop-color="#c48a98"></stop><stop offset=".566" stop-color="#d25993"></stop><stop offset=".623" stop-color="#dd3390"></stop><stop offset=".675" stop-color="#e5178d"></stop><stop offset=".721" stop-color="#e9068c"></stop><stop offset=".756" stop-color="#eb008b"></stop><stop offset=".761" stop-color="#e3048b"></stop><stop offset=".812" stop-color="#9f2590"></stop><stop offset=".861" stop-color="#664193"></stop><stop offset=".905" stop-color="#3a5796"></stop><stop offset=".944" stop-color="#1a6697"></stop><stop offset=".977" stop-color="#077099"></stop><stop offset="1" stop-color="#007399"></stop></linearGradient><path clip-path="url(#n)" fill="url(#o)" d="M55.992 136.944l77.388 106.908-77.869 56.367-77.389-106.908z"></path><defs><path id="p" d="M115.873 282.168l1.542-.381v-87.025l-1.542-1.664v89.07zm0-239.363v34.67l1.542-.587V41.021l-1.542 1.784z"></path></defs><clipPath id="q"><use xlink:href="#p"></use></clipPath><linearGradient id="r" gradientUnits="userSpaceOnUse" x1="-373.868" y1="563.815" x2="-372.868" y2="563.815" gradientTransform="matrix(118.0062 163.0192 163.0192 -118.0062 -47742.9492 127552)"><stop offset="0" stop-color="#007399"></stop><stop offset=".03" stop-color="#007399"></stop><stop offset=".105" stop-color="#047499"></stop><stop offset=".172" stop-color="#0f7699"></stop><stop offset=".236" stop-color="#217999"></stop><stop offset=".299" stop-color="#3b7d99"></stop><stop offset=".36" stop-color="#5c8399"></stop><stop offset=".421" stop-color="#858a99"></stop><stop offset=".48" stop-color="#b59399"></stop><stop offset=".493" stop-color="#c19599"></stop><stop offset=".505" stop-color="#c48a98"></stop><stop offset=".566" stop-color="#d25993"></stop><stop offset=".623" stop-color="#dd3390"></stop><stop offset=".675" stop-color="#e5178d"></stop><stop offset=".721" stop-color="#e9068c"></stop><stop offset=".756" stop-color="#eb008b"></stop><stop offset=".761" stop-color="#e3048b"></stop><stop offset=".812" stop-color="#9f2590"></stop><stop offset=".861" stop-color="#664193"></stop><stop offset=".905" stop-color="#3a5796"></stop><stop offset=".944" stop-color="#1a6697"></stop><stop offset=".977" stop-color="#077099"></stop><stop offset="1" stop-color="#007399"></stop></linearGradient><path clip-path="url(#q)" fill="url(#r)" d="M116.885 40.289l115.072 158.965L116.403 282.9 1.331 123.935z"></path><defs><path id="s" d="M85.523 292.939l1.542-.699V149.177l-1.542-5.105v148.867zm0-211v28.455l1.542-4.271V79.69l-1.542 2.249z"></path></defs><clipPath id="t"><use xlink:href="#s"></use></clipPath><linearGradient id="u" gradientUnits="userSpaceOnUse" x1="-373.868" y1="563.62" x2="-372.868" y2="563.62" gradientTransform="matrix(118.0062 163.0192 163.0192 -118.0062 -47742.9492 127552)"><stop offset="0" stop-color="#007399"></stop><stop offset=".03" stop-color="#007399"></stop><stop offset=".105" stop-color="#047499"></stop><stop offset=".172" stop-color="#0f7699"></stop><stop offset=".236" stop-color="#217999"></stop><stop offset=".299" stop-color="#3b7d99"></stop><stop offset=".36" stop-color="#5c8399"></stop><stop offset=".421" stop-color="#858a99"></stop><stop offset=".48" stop-color="#b59399"></stop><stop offset=".493" stop-color="#c19599"></stop><stop offset=".505" stop-color="#c48a98"></stop><stop offset=".566" stop-color="#d25993"></stop><stop offset=".623" stop-color="#dd3390"></stop><stop offset=".675" stop-color="#e5178d"></stop><stop offset=".721" stop-color="#e9068c"></stop><stop offset=".756" stop-color="#eb008b"></stop><stop offset=".761" stop-color="#e3048b"></stop><stop offset=".812" stop-color="#9f2590"></stop><stop offset=".861" stop-color="#664193"></stop><stop offset=".905" stop-color="#3a5796"></stop><stop offset=".944" stop-color="#1a6697"></stop><stop offset=".977" stop-color="#077099"></stop><stop offset="1" stop-color="#007399"></stop></linearGradient><path clip-path="url(#t)" fill="url(#u)" d="M86.535 78.958l101.82 140.659-102.302 74.055-101.82-140.66z"></path><defs><path id="v" d="M146.418 271.477l1.541-1.029v-45.055l-1.541-1.471v47.555zm1.541-248.491l-1.541.349v52.613l1.541.44V22.986z"></path></defs><clipPath id="w"><use xlink:href="#v"></use></clipPath><linearGradient id="x" gradientUnits="userSpaceOnUse" x1="-373.868" y1="563.979" x2="-372.868" y2="563.979" gradientTransform="matrix(118.0062 163.0192 163.0192 -118.0062 -47742.9492 127552)"><stop offset="0" stop-color="#007399"></stop><stop offset=".03" stop-color="#007399"></stop><stop offset=".105" stop-color="#047499"></stop><stop offset=".172" stop-color="#0f7699"></stop><stop offset=".236" stop-color="#217999"></stop><stop offset=".299" stop-color="#3b7d99"></stop><stop offset=".36" stop-color="#5c8399"></stop><stop offset=".421" stop-color="#858a99"></stop><stop offset=".48" stop-color="#b59399"></stop><stop offset=".493" stop-color="#c19599"></stop><stop offset=".505" stop-color="#c48a98"></stop><stop offset=".566" stop-color="#d25993"></stop><stop offset=".623" stop-color="#dd3390"></stop><stop offset=".675" stop-color="#e5178d"></stop><stop offset=".721" stop-color="#e9068c"></stop><stop offset=".756" stop-color="#eb008b"></stop><stop offset=".761" stop-color="#e3048b"></stop><stop offset=".812" stop-color="#9f2590"></stop><stop offset=".861" stop-color="#664193"></stop><stop offset=".905" stop-color="#3a5796"></stop><stop offset=".944" stop-color="#1a6697"></stop><stop offset=".977" stop-color="#077099"></stop><stop offset="1" stop-color="#007399"></stop></linearGradient><path clip-path="url(#w)" fill="url(#x)" d="M147.429 22.254l118.559 163.783-119.04 86.17L28.389 108.425z"></path><defs><path id="y" d="M154.379 268.227l1.541-1.074v-34.307l-1.541-1.43v36.811zm0-189.401l1.541.801V23.179l-1.541-.155v55.802z"></path></defs><clipPath id="z"><use xlink:href="#y"></use></clipPath><linearGradient id="AA" gradientUnits="userSpaceOnUse" x1="-373.868" y1="564.016" x2="-372.868" y2="564.016" gradientTransform="matrix(118.0062 163.0192 163.0192 -118.0062 -47742.9492 127552)"><stop offset="0" stop-color="#007399"></stop><stop offset=".03" stop-color="#007399"></stop><stop offset=".105" stop-color="#047499"></stop><stop offset=".172" stop-color="#0f7699"></stop><stop offset=".236" stop-color="#217999"></stop><stop offset=".299" stop-color="#3b7d99"></stop><stop offset=".36" stop-color="#5c8399"></stop><stop offset=".421" stop-color="#858a99"></stop><stop offset=".48" stop-color="#b59399"></stop><stop offset=".493" stop-color="#c19599"></stop><stop offset=".505" stop-color="#c48a98"></stop><stop offset=".566" stop-color="#d25993"></stop><stop offset=".623" stop-color="#dd3390"></stop><stop offset=".675" stop-color="#e5178d"></stop><stop offset=".721" stop-color="#e9068c"></stop><stop offset=".756" stop-color="#eb008b"></stop><stop offset=".761" stop-color="#e3048b"></stop><stop offset=".812" stop-color="#9f2590"></stop><stop offset=".861" stop-color="#664193"></stop><stop offset=".905" stop-color="#3a5796"></stop><stop offset=".944" stop-color="#1a6697"></stop><stop offset=".977" stop-color="#077099"></stop><stop offset="1" stop-color="#007399"></stop></linearGradient><path clip-path="url(#z)" fill="url(#AA)" d="M155.39 22.292l116.999 161.626-117.48 85.041L37.911 107.333z"></path><defs><path id="AB" d="M169.602 254.66l1.541-2.08v-4.654l-1.541-1.48v8.214zm0-159.983c.589 1.363 1.103 2.804 1.541 4.312V35.403l-1.541-1.751v61.025z"></path></defs><clipPath id="AC"><use xlink:href="#AB"></use></clipPath><linearGradient id="AD" gradientUnits="userSpaceOnUse" x1="-373.868" y1="564.081" x2="-372.868" y2="564.081" gradientTransform="matrix(118.0062 163.0192 163.0192 -118.0062 -47742.9492 127552)"><stop offset="0" stop-color="#007399"></stop><stop offset=".03" stop-color="#007399"></stop><stop offset=".105" stop-color="#047499"></stop><stop offset=".172" stop-color="#0f7699"></stop><stop offset=".236" stop-color="#217999"></stop><stop offset=".299" stop-color="#3b7d99"></stop><stop offset=".36" stop-color="#5c8399"></stop><stop offset=".421" stop-color="#858a99"></stop><stop offset=".48" stop-color="#b59399"></stop><stop offset=".493" stop-color="#c19599"></stop><stop offset=".505" stop-color="#c48a98"></stop><stop offset=".566" stop-color="#d25993"></stop><stop offset=".623" stop-color="#dd3390"></stop><stop offset=".675" stop-color="#e5178d"></stop><stop offset=".721" stop-color="#e9068c"></stop><stop offset=".756" stop-color="#eb008b"></stop><stop offset=".761" stop-color="#e3048b"></stop><stop offset=".812" stop-color="#9f2590"></stop><stop offset=".861" stop-color="#664193"></stop><stop offset=".905" stop-color="#3a5796"></stop><stop offset=".944" stop-color="#1a6697"></stop><stop offset=".977" stop-color="#077099"></stop><stop offset="1" stop-color="#007399"></stop></linearGradient><path clip-path="url(#AC)" fill="url(#AD)" d="M170.613 32.919L276.119 178.67l-105.987 76.723L64.626 109.642z"></path><defs><path id="AE" d="M162.136 262.768l1.542-1.824v-20.352l-1.542-1.541v23.717zm0-178.718l1.542 1.549V25.196l-1.542-.62V84.05z"></path></defs><clipPath id="AF"><use xlink:href="#AE"></use></clipPath><linearGradient id="AG" gradientUnits="userSpaceOnUse" x1="-373.868" y1="564.053" x2="-372.868" y2="564.053" gradientTransform="matrix(118.0062 163.0192 163.0192 -118.0062 -47742.9492 127552)"><stop offset="0" stop-color="#007399"></stop><stop offset=".03" stop-color="#007399"></stop><stop offset=".105" stop-color="#047499"></stop><stop offset=".172" stop-color="#0f7699"></stop><stop offset=".236" stop-color="#217999"></stop><stop offset=".299" stop-color="#3b7d99"></stop><stop offset=".36" stop-color="#5c8399"></stop><stop offset=".421" stop-color="#858a99"></stop><stop offset=".48" stop-color="#b59399"></stop><stop offset=".493" stop-color="#c19599"></stop><stop offset=".505" stop-color="#c48a98"></stop><stop offset=".566" stop-color="#d25993"></stop><stop offset=".623" stop-color="#dd3390"></stop><stop offset=".675" stop-color="#e5178d"></stop><stop offset=".721" stop-color="#e9068c"></stop><stop offset=".756" stop-color="#eb008b"></stop><stop offset=".761" stop-color="#e3048b"></stop><stop offset=".812" stop-color="#9f2590"></stop><stop offset=".861" stop-color="#664193"></stop><stop offset=".905" stop-color="#3a5796"></stop><stop offset=".944" stop-color="#1a6697"></stop><stop offset=".977" stop-color="#077099"></stop><stop offset="1" stop-color="#007399"></stop></linearGradient><path clip-path="url(#AF)" fill="url(#AG)" d="M163.148 23.843l113.667 157.026L162.666 263.5 48.999 106.474z"></path></svg> 